<mxfile host="app.diagrams.net" modified="2021-08-05T03:11:08.858Z" agent="5.0 (Windows NT 6.1; Win64; x64) AppleWebKit/537.36 (KHTML, like Gecko) Chrome/92.0.4515.107 Safari/537.36" etag="7lZg-n6m4umuK9LMiQ8U" version="14.9.4" type="github">
  <diagram id="GycYFrWmDNwBHVB8v1fu" name="第 1 页">
    <mxGraphModel dx="1102" dy="582" grid="1" gridSize="10" guides="1" tooltips="1" connect="1" arrows="1" fold="1" page="1" pageScale="1" pageWidth="827" pageHeight="1169" math="0" shadow="0">
      <root>
        <mxCell id="0" />
        <mxCell id="1" parent="0" />
        <mxCell id="Hdr9tOVc09uNca0y6-iA-1" value="启动事务" style="rounded=0;whiteSpace=wrap;html=1;fontSize=16;fillColor=#dae8fc;strokeColor=#6c8ebf;" vertex="1" parent="1">
          <mxGeometry x="390" y="170" width="179.99999999999997" height="41.42857142857143" as="geometry" />
        </mxCell>
        <mxCell id="Hdr9tOVc09uNca0y6-iA-2" value="启动事务" style="rounded=0;whiteSpace=wrap;html=1;fontSize=16;fillColor=#dae8fc;strokeColor=#6c8ebf;" vertex="1" parent="1">
          <mxGeometry x="210" y="170" width="179.99999999999997" height="41.42857142857143" as="geometry" />
        </mxCell>
        <mxCell id="Hdr9tOVc09uNca0y6-iA-3" value="" style="rounded=0;whiteSpace=wrap;html=1;fontSize=16;" vertex="1" parent="1">
          <mxGeometry x="390" y="211.42857142857144" width="179.99999999999997" height="41.42857142857143" as="geometry" />
        </mxCell>
        <mxCell id="Hdr9tOVc09uNca0y6-iA-4" value="更新小林余额为 100" style="rounded=0;whiteSpace=wrap;html=1;fontSize=16;fillColor=#ffe6cc;strokeColor=#d79b00;" vertex="1" parent="1">
          <mxGeometry x="210" y="211.42857142857144" width="179.99999999999997" height="41.42857142857143" as="geometry" />
        </mxCell>
        <mxCell id="Hdr9tOVc09uNca0y6-iA-5" value="" style="rounded=0;whiteSpace=wrap;html=1;fontSize=16;" vertex="1" parent="1">
          <mxGeometry x="390" y="252.85714285714286" width="179.99999999999997" height="41.42857142857143" as="geometry" />
        </mxCell>
        <mxCell id="Hdr9tOVc09uNca0y6-iA-6" value="&lt;span style=&quot;font-size: 16px;&quot;&gt;更新小林余额为 200&lt;/span&gt;" style="rounded=0;whiteSpace=wrap;html=1;fontSize=16;fillColor=#ffe6cc;strokeColor=#d79b00;" vertex="1" parent="1">
          <mxGeometry x="210" y="252.85714285714286" width="179.99999999999997" height="41.42857142857143" as="geometry" />
        </mxCell>
        <mxCell id="Hdr9tOVc09uNca0y6-iA-7" value="" style="rounded=0;whiteSpace=wrap;html=1;fontSize=16;" vertex="1" parent="1">
          <mxGeometry x="390" y="294.2857142857143" width="179.99999999999997" height="41.42857142857143" as="geometry" />
        </mxCell>
        <mxCell id="Hdr9tOVc09uNca0y6-iA-8" value="提交事务" style="rounded=0;whiteSpace=wrap;html=1;fontSize=16;fillColor=#d5e8d4;strokeColor=#82b366;" vertex="1" parent="1">
          <mxGeometry x="210" y="294.2857142857143" width="179.99999999999997" height="41.42857142857143" as="geometry" />
        </mxCell>
        <mxCell id="Hdr9tOVc09uNca0y6-iA-9" value="&lt;span style=&quot;font-size: 16px;&quot;&gt;更新小林余额为 300&lt;/span&gt;" style="rounded=0;whiteSpace=wrap;html=1;fontSize=16;fillColor=#fff2cc;strokeColor=#d6b656;" vertex="1" parent="1">
          <mxGeometry x="390" y="335.7142857142857" width="179.99999999999997" height="41.42857142857143" as="geometry" />
        </mxCell>
        <mxCell id="Hdr9tOVc09uNca0y6-iA-10" value="" style="rounded=0;whiteSpace=wrap;html=1;fontSize=16;" vertex="1" parent="1">
          <mxGeometry x="210" y="335.7142857142857" width="179.99999999999997" height="41.42857142857143" as="geometry" />
        </mxCell>
        <mxCell id="Hdr9tOVc09uNca0y6-iA-11" value="&lt;span style=&quot;font-size: 16px;&quot;&gt;更新小林余额为 400&lt;/span&gt;" style="rounded=0;whiteSpace=wrap;html=1;fontSize=16;fillColor=#fff2cc;strokeColor=#d6b656;" vertex="1" parent="1">
          <mxGeometry x="390" y="377.14285714285717" width="179.99999999999997" height="41.42857142857143" as="geometry" />
        </mxCell>
        <mxCell id="Hdr9tOVc09uNca0y6-iA-12" value="" style="rounded=0;whiteSpace=wrap;html=1;fontSize=16;" vertex="1" parent="1">
          <mxGeometry x="210" y="377.14285714285717" width="179.99999999999997" height="41.42857142857143" as="geometry" />
        </mxCell>
        <mxCell id="Hdr9tOVc09uNca0y6-iA-13" value="提交事务" style="rounded=0;whiteSpace=wrap;html=1;fontSize=16;fillColor=#d5e8d4;strokeColor=#82b366;" vertex="1" parent="1">
          <mxGeometry x="390" y="418.57142857142856" width="179.99999999999997" height="41.42857142857143" as="geometry" />
        </mxCell>
        <mxCell id="Hdr9tOVc09uNca0y6-iA-14" value="" style="rounded=0;whiteSpace=wrap;html=1;fontSize=16;" vertex="1" parent="1">
          <mxGeometry x="210" y="418.57142857142856" width="179.99999999999997" height="41.42857142857143" as="geometry" />
        </mxCell>
        <mxCell id="Hdr9tOVc09uNca0y6-iA-16" value="事务 id 100" style="text;html=1;align=center;verticalAlign=middle;resizable=0;points=[];autosize=1;strokeColor=#d79b00;fontSize=16;fillColor=#ffe6cc;" vertex="1" parent="1">
          <mxGeometry x="250" y="140" width="100" height="20" as="geometry" />
        </mxCell>
        <mxCell id="Hdr9tOVc09uNca0y6-iA-17" value="事务 id 200" style="text;html=1;align=center;verticalAlign=middle;resizable=0;points=[];autosize=1;strokeColor=#d6b656;fontSize=16;fillColor=#fff2cc;" vertex="1" parent="1">
          <mxGeometry x="430" y="140" width="100" height="20" as="geometry" />
        </mxCell>
      </root>
    </mxGraphModel>
  </diagram>
</mxfile>
